<svg aria-hidden="true" style="width:0;height:0;position:absolute;overflow:hidden" xmlns="http://www.w3.org/2000/svg"><defs><symbol id="icon-burger" viewBox="0 0 32 32"><path fill="none" stroke="#fff" style="stroke:var(--color1,#fff)" stroke-linecap="round" stroke-width="2" d="M6 10h20M6 16h20M6 22h20"/></symbol><symbol id="icon-pointer" viewBox="0 0 24 24"><path d="m9.707 18.707 6-6a.999.999 0 0 0 0-1.414l-6-6a.999.999 0 1 0-1.414 1.414L13.586 12l-5.293 5.293a.999.999 0 1 0 1.414 1.414z"/></symbol><symbol id="icon-arrov-1" viewBox="0 0 84 32"><path d="M81.949 17.191a2 2 0 0 0 0-2.828L69.221 1.635a2 2 0 0 0-2.829 2.828l11.314 11.314-11.314 11.314a2 2 0 0 0 2.829 2.829l12.728-12.728zm-81.884.586h80.469v-4H.065v4z"/></symbol><symbol id="icon-arrov-2" viewBox="0 0 102 32"><path d="M101.414 17.414a2 2 0 0 0 0-2.828L88.686 1.858a2 2 0 1 0-2.828 2.828L97.172 16 85.858 27.314a2 2 0 1 0 2.828 2.828l12.728-12.728zM0 18h100v-4H0v4z"/></symbol><symbol id="icon-arrov-3" viewBox="0 0 69 32"><path d="M68.081 17.414a2 2 0 0 0 0-2.829L55.353 1.857a2 2 0 1 0-2.828 2.828l11.314 11.314-11.314 11.314a2 2 0 1 0 2.828 2.828l12.728-12.728zM0 18h66.667v-4H0v4z"/></symbol><symbol id="icon-close" viewBox="0 0 32 32"><path d="M23.884 6.706 16 14.59 8.116 6.706a.995.995 0 0 0-1.38.031 1 1 0 0 0-.031 1.38l7.88 7.884-7.882 7.882a1.002 1.002 0 0 0-.018 1.427.998.998 0 0 0 1.427-.015l7.886-7.882 7.884 7.884a1 1 0 0 0 1.38-.03 1 1 0 0 0 .03-1.38l-7.884-7.884 7.884-7.886a1.002 1.002 0 0 0 .018-1.427.998.998 0 0 0-1.427.015v.002z"/></symbol><symbol id="icon-cow" viewBox="0 0 32 32"><path d="M6.168.192c-.261.225-1.006 1.781-1.274 2.63-.319 1.052-.427 1.841-.384 2.931.058 1.556.449 2.735 1.31 3.968.224.323.405.601.405.624 0 .015-.138.03-.311.03-.746 0-2.143.248-3.214.571-1.701.511-2.7 1.405-2.7 2.405 0 .353.319.954.659 1.262.659.594 2.1 1.157 3.649 1.428.536.098 2.128.263 2.483.271.065 0 .087.346.087 1.48 0 .977.036 1.736.109 2.202.261 1.668 1.071 3.434 2.143 4.682l.369.428-.246.398c-.362.564-.499.992-.543 1.631-.109 1.533.847 2.893 2.693 3.848 3.518 1.826 8.985 1.112 11.033-1.443.999-1.247 1.115-2.675.326-3.968l-.246-.398.442-.534c.825-.992 1.361-1.984 1.767-3.239.34-1.067.471-2.097.471-3.727 0-.744.022-1.36.058-1.36.333-.008 1.933-.18 2.44-.271 1.557-.271 2.968-.827 3.649-1.428.34-.308.659-.909.659-1.262 0-1.112-1.129-2.014-3.229-2.555-.688-.18-1.984-.398-2.613-.436l-.297-.023.326-.451c.405-.549.912-1.616 1.108-2.315.55-2.021.21-4.374-.97-6.62-.492-.932-.833-1.15-1.231-.782-.152.143-.217.338-.362 1.045-.449 2.247-1.281 4.028-2.498 5.343l-.536.586H10.247l-.478-.518C8.582 5.317 7.72 3.469 7.271 1.214 7.126.508 7.061.312 6.909.169c-.239-.218-.471-.21-.738.023zm.927 4.457c.384.842.862 1.631 1.426 2.36l.449.579-.471.353a4.73 4.73 0 0 0-1.173 1.368l-.138.248-.348-.473c-1.187-1.638-1.484-3.645-.854-5.726.304-1.007.297-.999.572-.128.13.421.376 1.06.536 1.42zM25.94 3.063c.297.894.413 1.608.413 2.532 0 1.368-.362 2.525-1.122 3.562l-.34.466-.253-.428a4.5 4.5 0 0 0-1.267-1.39c-.195-.128-.347-.255-.347-.271 0-.023.137-.195.311-.383.804-.894 1.665-2.502 2.092-3.885.13-.428.261-.782.282-.782s.13.263.232.579zm-3.699 5.493c.804.338 1.571 1.308 1.694 2.127.065.451.217.736.413.782.087.015.688.068 1.332.113 2.288.15 4.09.639 4.858 1.308.355.316.319.579-.109.902-.854.646-2.7 1.135-4.583 1.217-1.245.053-1.506.09-1.672.263-.123.128-.138.263-.138 1.623 0 1.841-.094 2.901-.326 3.757-.326 1.165-.97 2.405-1.723 3.284l-.311.361-.644-.383a7.965 7.965 0 0 0-2.389-.969c-2.744-.654-5.777-.256-7.819 1.029l-.471.301-.297-.353c-.405-.473-1.043-1.488-1.296-2.059-.557-1.293-.724-2.345-.724-4.659 0-2.247.116-2.082-1.549-2.172-2.128-.113-3.75-.496-4.771-1.142-.753-.481-.63-.909.42-1.413 1.006-.488 2.389-.781 4.308-.902 1.491-.098 1.528-.12 1.665-.842.203-1.09 1.006-1.991 2.02-2.277.253-.075 1.672-.09 6.016-.083l5.683.015.413.173zm-4.069 15.556c1.774.436 3.099 1.247 3.671 2.254.137.233.195.473.224.842.029.458.007.571-.166.947-.804 1.706-3.757 2.833-6.762 2.578-3.613-.301-5.987-2.315-5.053-4.291.507-1.067 2.223-2.089 4.033-2.39.297-.045.594-.098.652-.113s.71-.015 1.448 0c1.006.023 1.491.068 1.955.173z"/><path d="M10.99 12.321c-.449.15-.753.346-1.158.751-.355.338-.384.736-.087.977.275.225.536.195.869-.098.42-.368.746-.518 1.151-.518.405-.008.717.135 1.151.518.333.293.594.323.869.098.145-.12.188-.218.188-.443 0-.233-.051-.338-.304-.594-.717-.721-1.781-.999-2.679-.691zm8.442-.008c-.463.173-1.057.564-1.296.857-.232.286-.239.609 0 .849.239.256.529.241.876-.045.854-.706 1.491-.729 2.281-.075.203.173.434.308.507.308.355 0 .644-.316.644-.691 0-.24-.601-.797-1.144-1.06-.601-.293-1.318-.346-1.868-.143zM12.04 26.224c-.21.203-.282.496-.174.729.08.188.203.263.702.398.224.06.319.135.398.323.101.248.109.248.666.27l.557.023v-.21c-.007-.301-.174-.736-.391-1.037-.253-.346-.695-.571-1.195-.616-.34-.03-.427-.015-.565.12zm6.914-.053c-.362.098-.883.586-1.028.969-.065.173-.13.481-.137.684-.015.323.014.398.188.556.427.376.992.083.992-.518 0-.293.217-.496.601-.571.405-.075.55-.24.557-.624 0-.504-.449-.699-1.173-.496z"/></symbol><symbol id="icon-facebook" viewBox="0 0 32 32"><path fill="#f8d24e" style="fill:var(--color1,#f8d24e)" d="M16 32c8.837 0 16-7.163 16-16S24.837 0 16 0 0 7.163 0 16s7.163 16 16 16z"/><path d="M20.446 15.981h-2.61v9.618h-3.955v-9.618H12v-3.38h1.881v-2.188c0-1.564.739-4.014 3.99-4.014l2.929.012v3.281h-2.125c-.349 0-.839.175-.839.921v1.989h2.955l-.346 3.377z"/></symbol><symbol id="icon-github" viewBox="0 0 32 32"><path fill="#f8d24e" style="fill:var(--color1,#f8d24e)" d="M32 16c0 8.837-7.163 16-16 16S0 24.837 0 16 7.163 0 16 0s16 7.163 16 16z"/><path d="M16.002 6.588C10.833 6.588 6.59 10.83 6.59 16c0 4.411 3.095 8.418 7.206 9.412v-3.114a2.307 2.307 0 0 1-1.197-.03c-.556-.164-1.008-.535-1.344-1.1-.214-.361-.593-.752-.988-.723l-.097-1.099c.855-.073 1.595.521 2.034 1.259.195.328.419.52.708.605.278.082.577.043.926-.08.088-.698.407-.959.648-1.326-2.451-.366-3.428-1.666-3.816-2.693-.514-1.363-.238-3.066.671-4.142.018-.021.05-.076.037-.114-.417-1.258.091-2.3.11-2.41.481.142.559-.143 2.088.786l.264.159c.111.066.076.028.186.02a7.984 7.984 0 0 1 1.975-.278 8.016 8.016 0 0 1 2.002.285l.086.009c-.007-.001.023-.005.075-.036 1.911-1.157 1.842-.779 2.354-.946.018.111.519 1.169.107 2.411-.056.171 1.657 1.739.707 4.256-.388 1.027-1.365 2.328-3.816 2.693.314.479.692.734.69 1.722v3.887c4.111-.993 7.206-5 7.206-9.412 0-5.169-4.242-9.412-9.412-9.412z"/></symbol><symbol id="icon-ice-crema" viewBox="0 0 32 32"><path d="M16.108.107c.08.214.241 1.252.241 1.573 0 .797-.295 1.54-.837 2.122-.449.482-.897.75-1.975 1.185-1.198.489-1.694.783-2.256 1.339-.569.569-.904 1.192-1.024 1.921-.134.797 0 1.359.408 1.68l.208.161-.328.208c-.663.435-1.868 1.459-2.075 1.774-.402.603-.361 1.165.094 1.392l.214.107-.241.228c-.361.341-.435.576-.382 1.192.033.408.02.629-.074.964-.114.435-.114.442.033.75.147.301.562.683.937.843.181.08.187.107.228.723.02.355.053 1.486.08 2.517.02 1.031.067 1.975.107 2.089a.79.79 0 0 0 .274.361c.388.268.656.556.83.89.194.382.408 1.319 1.058 4.559l.455 2.276.281.268c.536.529 1.56.77 3.247.77 1.694 0 2.705-.234 3.24-.763l.288-.274.415-2.109c.917-4.613.997-4.867 1.714-5.436.221-.181.435-.402.475-.502.047-.114.094-.991.127-2.316.027-1.178.067-2.343.094-2.591l.04-.449.435-.328c.549-.422.763-.803.763-1.393-.007-.696-.462-1.459-1.292-2.142l-.395-.321.194-.274c.81-1.118.301-2.664-1.205-3.695l-.455-.315.167-.174c.743-.797.864-3.173.241-4.827-.375-.984-1.232-2.055-2.283-2.845C17.659.857 16.239 0 16.112 0c-.027 0-.027.047-.007.107zm1.928 2.336c.355.348.783.823.951 1.064.997 1.392 1.252 3.14.649 4.425-.241.522-.964 1.299-1.633 1.761-1.024.71-3.327 1.901-4.934 2.557-2.584 1.051-4.084 1.252-4.258.562-.067-.261.127-.469.951-1.018.743-.509 4.077-2.986 4.137-3.086.02-.027-.321.127-.75.341-1.453.736-2.142.596-2.109-.428.02-.743.556-1.587 1.299-2.069.187-.12.77-.388 1.305-.603 1.761-.71 2.296-1.071 2.892-1.962.355-.529.743-1.506.77-1.921.007-.147.034-.261.054-.261s.321.288.676.636zm1.828 7.606c.489.274.997.743 1.218 1.111.388.663.187 1.325-.649 2.169-.91.924-2.464 1.808-4.171 2.37-1.573.515-3.079.756-5.235.83l-1.339.047.87.054c1.125.074 3.3.007 4.144-.127 2.243-.355 4.151-1.064 5.516-2.042.308-.221.629-.402.716-.402.221 0 1.185.924 1.379 1.312.107.221.134.382.114.596-.1.89-1.185 1.366-3.802 1.68-3.2.382-7.384.007-9.172-.817-.844-.388-.984-.609-.77-1.198.067-.187.08-.408.054-.723-.033-.415-.027-.469.12-.623.335-.361.897-.569 2.959-1.091a28.11 28.11 0 0 0 2.176-.656c1.138-.415 3.274-1.493 4.264-2.156.93-.616 1.064-.643 1.607-.335zm-8.89 8.194c1.406.408 2.651.529 4.967.482 1.741-.034 2.812-.141 4.358-.415.315-.053.589-.1.623-.1.074 0 .053 2.571-.027 3.247-.087.716-.281 1.272-.489 1.406-.214.141-1.285.288-2.718.368-2.939.161-5.958 0-6.895-.375-.509-.207-.562-.475-.569-2.959 0-1.654.013-1.881.1-1.848.053.02.348.107.649.194zm1.586 5.69c.482.06 1.004.121 1.165.141l.288.034-.254.281c-.328.355-.83 1.064-1.011 1.426-.207.415-.274.442-.582.274l-.261-.147-.147-.91c-.08-.495-.167-.971-.187-1.051-.06-.174-.12-.174.991-.047zm7.137-.074c0 .013-.033.187-.067.382-.04.201-.208 1.292-.375 2.43-.341 2.377-.569 3.495-.777 3.869-.288.502-.977.797-2.095.89-.435.034-1.747-.053-1.821-.12-.053-.06 1.098-1.486 1.279-1.58.167-.094.214-.08.783.214.663.348.997.402.997.181s-.174-.435-.602-.73c-.395-.281-.536-.442-.536-.629 0-.053.194-.355.428-.669s.576-.817.75-1.118l.328-.542.301.04c.609.087.77.08.75-.053-.013-.067-.127-.261-.254-.422-.127-.167-.228-.335-.228-.368 0-.127.623-1.299.823-1.546.174-.214.315-.321.315-.228zm-4.184.536c.335.221 1.593 1.312 1.674 1.446.034.06-1.259 2.082-1.513 2.37-.027.034-.167-.033-.308-.141a22.133 22.133 0 0 0-1.165-.803l-.904-.596.542-.917c.964-1.613.944-1.587 1.151-1.587.107 0 .341.1.522.228zm2.537.241c-.234.288-.428.469-.509.469-.174 0-.455-.154-.93-.502l-.395-.288.79-.047c.428-.02.844-.047.917-.06.536-.087.536-.08.127.428zm-5.061 3.22c.616.241 1.66.81 1.962 1.064.214.174.214.187.127.402a6.675 6.675 0 0 1-.415.716c-.174.268-.375.602-.449.743-.214.415-.281.449-.723.328-.475-.141-.73-.382-.864-.817-.181-.609-.469-2.33-.435-2.598.013-.1.295-.04.797.161z"/></symbol><symbol id="icon-logo-ice" viewBox="0 0 30 32"><path fill="#f8d24e" style="fill:var(--color2,#f8d24e)" d="M15.226 17.082c1.415-3.784-1.515-5.856-3.457-7.217-.371-.278-.743-.538-1.043-.776-.537-.447-.933-1.037-1.141-1.699s-.217-1.37-.029-2.037a.394.394 0 0 0-.308-.491.407.407 0 0 0-.216.016 6.565 6.565 0 0 0-1.801 1.058c-.518.393-.937.898-1.226 1.476s-.44 1.213-.441 1.858c-.366.285-.69.618-.962.992a3.6 3.6 0 0 0-.709 2.324c-.595.538-1.038 1.22-1.286 1.977s-.292 1.566-.129 2.345a1.232 1.232 0 0 0-.106 2.06c.221.164.49.251.767.25h.026v2.152c0 .218.088.428.245.582s.369.241.591.241h.65l1.058 9.04a.83.83 0 0 0 .828.732h4.404c.206 0 .404-.075.557-.21s.251-.321.275-.522l1.058-9.04h.65c.222 0 .434-.087.591-.241s.245-.364.245-.582v-2.152h.026c.336 0 .658-.131.895-.366a1.242 1.242 0 0 0 0-1.773l-.011.004zm-9.531-6.866c.535 1.98 2.599 2.76 4.482 3.455a.41.41 0 0 0 .492-.051.403.403 0 0 0 .074-.483.401.401 0 0 0-.279-.197c-2.027-.758-3.939-1.464-4.084-3.488-.034-.556.072-1.112.308-1.619s.596-.947 1.047-1.284c.282-.232.586-.437.906-.615a4.604 4.604 0 0 0 0 .761c.043.58.204 1.146.473 1.663s.641.976 1.094 1.349c.308.26.691.527 1.114.813.976.692 2.087 1.464 2.792 2.511a3.859 3.859 0 0 1 .404 3.715h-1.641c-3.383 0-7.27-.922-8.039-3.506-.152-.532-.151-1.095.004-1.626s.457-1.009.873-1.379l-.019-.018zM8.74 22.693l1.24 1.222-1.24 1.222-1.24-1.23 1.24-1.215zm2.844 3.21-1.025 1.01-1.24-1.222 1.24-1.219 1.077 1.058-.052.373zM8.74 28.706 7.5 27.484l1.24-1.222 1.24 1.222-1.24 1.222zm-.568-3.008-1.24 1.222L5.9 25.903l-.045-.366 1.077-1.058 1.24 1.219zM6.36 27.484l-.249.245-.063-.556.312.311zm-.13 1.251.702-.692 1.363 1.354a.845.845 0 0 0 .026.081H6.316l-.085-.743zm4.322-.691.702.692-.085.732H9.108l1.444-1.424zm.817-.315-.249-.245.316-.311-.067.556zm.371-3.199-.62-.622.787-.776-.167 1.398zm-1.192-1.178-1.177-1.157h2.354l-1.177 1.157zm-3.62 0-1.177-1.157h2.354l-1.177 1.157zm4.01 7.817h-4.4c-.007-.001-.013-.004-.018-.008s-.008-.011-.008-.017l-.104-.878h4.663l-.1.878c-.001.007-.004.014-.01.018s-.012.007-.02.007h-.004zm3.405-12.751h-1.292a.406.406 0 0 0-.444.397c0 .056.012.111.035.161s.056.096.098.134a.403.403 0 0 0 .311.102h.46v2.152c-.001.007-.004.014-.01.018s-.012.007-.02.007H3.987c-.007 0-.014-.003-.02-.007s-.009-.011-.01-.018v-2.152h7.355a.404.404 0 0 0 .366-.397.393.393 0 0 0-.105-.268.413.413 0 0 0-.261-.129H3.144a.46.46 0 0 1-.501-.452.446.446 0 0 1 .15-.335.454.454 0 0 1 .351-.117h.843a.404.404 0 0 0 .366-.397.393.393 0 0 0-.105-.268.413.413 0 0 0-.261-.129h-.743a3.873 3.873 0 0 1 .81-3.185c.26.798.928 1.889 2.599 2.756 1.571.809 3.65 1.222 6.178 1.222h1.485a.46.46 0 0 1 .501.452.446.446 0 0 1-.15.335.454.454 0 0 1-.351.117h.026z"/><path fill="#f8d24e" style="fill:var(--color2,#f8d24e)" d="m16.964 29.152-.292.449.006.004.287-.453zm3.149.151.535-.012-.014-.62-.611.104.09.528zm.037 1.648.136.518.409-.108-.009-.422-.535.012zm-4.133.079.12-.522-.003-.001-.117.523zm-2.04-.911.347-.408-.001-.001-.346.409zm-.737-1.673.536.003v-.003h-.536zm.256-1.172-.481-.236v.001l.481.236zm1.643-1.402.19.501.002-.001-.192-.5zm5.262-.136.534.042.035-.452-.44-.109-.129.52zm-.131 1.679-.1.526.587.111.046-.596-.534-.042zm-1.428-.687c-.804 0-1.48.086-1.973.303a1.616 1.616 0 0 0-.651.489 1.26 1.26 0 0 0-.255.774h1.071c0-.063.015-.098.038-.127a.554.554 0 0 1 .228-.155c.288-.126.784-.212 1.542-.212v-1.071zm-2.879 1.566c0 .551.247 1.006.709 1.307l.585-.897a.435.435 0 0 1-.222-.409h-1.071zm.715 1.31c.438.277 1.015.381 1.662.381v-1.071c-.559 0-.899-.095-1.089-.215l-.573.905zm1.662.382a11.1 11.1 0 0 0 1.863-.154l-.179-1.056c-.545.092-1.106.139-1.684.139v1.071zm1.238-.671.037 1.648 1.071-.024-.037-1.648-1.071.024zm.435 1.118a7.964 7.964 0 0 1-2.029.244v1.071c.821 0 1.589-.092 2.302-.279l-.273-1.036zm-2.029.244c-.757 0-1.369-.059-1.847-.169l-.24 1.044c.582.134 1.281.197 2.087.197v-1.071zm-1.85-.17c-.511-.114-.88-.236-1.127-.356l-.47.963c.354.173.814.316 1.363.439l.234-1.045zm-1.126-.356a3.258 3.258 0 0 1-.684-.44l-.693.817c.267.227.571.421.907.585l.47-.963zm-.685-.441c-.364-.308-.55-.709-.548-1.262l-1.071-.005c-.004.842.301 1.556.927 2.086l.691-.818zm-.547-1.264c0-.36.071-.669.202-.936l-.962-.471c-.211.43-.311.903-.311 1.407h1.071zm.201-.936c.244-.495.674-.88 1.352-1.137l-.38-1.002c-.884.336-1.549.885-1.933 1.666l.961.473zm1.354-1.138c.713-.274 1.508-.414 2.392-.414v-1.071c-.999 0-1.926.159-2.776.485l.384 1zm2.392-.414c.902 0 1.751.1 2.549.298l.258-1.04a11.605 11.605 0 0 0-2.807-.33v1.071zm2.144-.263-.131 1.679 1.068.083.131-1.679-1.068-.083zm.503 1.194a8.256 8.256 0 0 0-1.528-.161v1.071c.377 0 .818.046 1.328.142l.2-1.052zm5.226.856-.003.536.544.003-.006-.544-.536.006zm-.23-.696-.364.393.005.004.36-.397zm-1.334.052.371.386.004-.004-.375-.383zm-.324.633-.529-.087-.102.619.627.003.003-.536zm3.938 2.856.324.427.193-.146.018-.241-.534-.04zm-1.156.429-.115-.523-.003.001.118.522zm-4.017-.146-.183.504.004.002.178-.505zm-.915-.487-.332.42.003.003.003.003.326-.425zm-.612-.769-.48.237.001.002.479-.24zm.627-3.248.356.4-.356-.4zm4.896-.581.214-.491-.005-.002-.209.493zm1.23 1.13-.482.234.001.003.48-.237zm.209.937.534.039.001-.019v-.019h-.536zm-.063.863-.003.536.501.002.036-.499-.534-.039zm-4.242-.021.003-.536-.699-.003.178.676.518-.137zm.607.748-.264.466.002.001.261-.468zm3.253-.183v-.536h-.107l-.099.041.206.494zm.283 0 .534.04.043-.576h-.577v.536zm-1.615-1.523c-.004-.387-.093-.803-.406-1.087l-.72.794c-.006-.006.006.001.021.047a.87.87 0 0 1 .033.257l1.071-.011zm-.401-1.082c-.281-.261-.65-.347-1.013-.347v1.071c.209 0 .272.05.284.061l.729-.785zm-1.013-.348c-.399 0-.77.125-1.06.409l.75.765c.058-.057.144-.103.31-.103v-1.071zm-1.056.406a1.63 1.63 0 0 0-.482.932l1.057.174a.558.558 0 0 1 .167-.333l-.742-.773zm.044 1.555 1.888.011.006-1.071-1.888-.011-.006 1.071zm3.618 1.893c-.117.089-.404.213-.948.333l.23 1.046c.565-.124 1.049-.286 1.364-.525l-.647-.854zm-.951.334a6.805 6.805 0 0 1-1.498.175v1.071c.566 0 1.145-.068 1.735-.201l-.237-1.045zm-1.498.175c-.505 0-.92-.024-1.252-.068l-.143 1.062c.394.053.86.078 1.395.078v-1.071zm-1.252-.069a4.855 4.855 0 0 1-.971-.236l-.357 1.01c.389.137.784.233 1.184.287l.143-1.062zm-.966-.234a2.862 2.862 0 0 1-.772-.408l-.652.85c.305.234.66.421 1.059.565l.365-1.007zm-.766-.403a1.708 1.708 0 0 1-.465-.588l-.958.479c.189.377.44.697.759.949l.665-.84zm-.464-.586c-.113-.228-.18-.521-.18-.898h-1.071c0 .502.09.966.291 1.372l.96-.475zm-.18-.898c0-.377.068-.71.196-1.006l-.983-.427a3.57 3.57 0 0 0-.285 1.432h1.071zm.196-1.005c.135-.311.3-.541.487-.708l-.712-.8a3.056 3.056 0 0 0-.758 1.081l.983.427zm.488-.708c.576-.513 1.454-.811 2.719-.811v-1.071c-1.42 0-2.592.334-3.432 1.083l.713.8zm2.719-.811c.568 0 1.103.108 1.611.324l.418-.986a5.144 5.144 0 0 0-2.029-.409v1.071zm1.606.321c.474.207.78.5.962.873l.963-.468c-.307-.631-.82-1.091-1.497-1.387l-.428.982zm.963.876c.1.203.154.433.154.699h1.071c0-.417-.086-.811-.265-1.173l-.96.474zm.156.661-.063.863 1.068.078.063-.863-1.068-.078zm.474.366-4.242-.021-.005 1.071 4.242.021.005-1.071zm-4.763.651c.125.475.431.835.861 1.078l.527-.933c-.212-.12-.31-.258-.352-.418l-1.036.273zm.863 1.079c.434.243.978.34 1.585.34v-1.071c-.509 0-.848-.084-1.062-.204l-.523.935zm1.585.34c.651 0 1.367-.176 2.136-.496l-.412-.989c-.689.287-1.26.414-1.724.414v1.071zm1.93-.455h.282v-1.071h-.282v1.071zm-.251-.575-.099 1.329 1.068.08.099-1.329-1.068-.08z"/></symbol><symbol id="icon-telegram" viewBox="0 0 32 32"><path fill="#f8d24e" style="fill:var(--color1,#f8d24e)" d="M32 16c0 8.837-7.163 16-16 16S0 24.837 0 16 7.163 0 16 0s16 7.163 16 16z"/><path d="m12.866 18.375-.318 4.169c.454 0 .651-.182.887-.401l2.13-1.9 4.414 3.017c.81.421 1.38.199 1.599-.695l2.898-12.673c.257-1.117-.433-1.554-1.222-1.28L6.222 14.698c-1.162.421-1.145 1.026-.198 1.3l4.354 1.264 10.115-5.907c.476-.294.909-.131.553.163l-8.182 6.857z"/></symbol><symbol id="icon-weight" viewBox="0 0 32 32"><path d="M14.177.547c-3.974.589-7.247 2.796-8.451 5.685-.384.913-.488 1.473-.488 2.573.007.812.037 1.114.162 1.553.259.863.443 1.301.827 1.919l.355.575-.399.489c-3.154 3.924-3.502 9.444-.872 13.793.982 1.632 2.585 3.234 4.152 4.169l.465.273 12.743-.108.303-.165c1.056-.597 2.549-1.926 3.383-3.004a12.61 12.61 0 0 0 2.423-5.621c.118-.74.118-2.932-.007-3.63-.377-2.149-1.182-3.989-2.453-5.621-.244-.309-.436-.568-.436-.589 0-.014.133-.237.288-.489a7.762 7.762 0 0 0 .864-1.962c.199-.719.199-2.516 0-3.234-.709-2.552-2.837-4.679-5.843-5.851C20.351.971 18.91.619 17.98.504c-.864-.101-2.999-.079-3.804.043zm4.499 1.171c3.945.769 6.833 3.184 7.365 6.16.118.668.044 1.804-.155 2.437-.199.618-.569 1.344-1.005 1.962-.177.252-.325.539-.325.633s.155.338.377.582c1.847 2.048 2.822 4.614 2.822 7.389-.007 3.155-1.219 5.922-3.553 8.093-.399.374-.968.841-1.271 1.042l-.554.374-12.211.05-.473-.302c-1.714-1.114-3.258-2.954-4.115-4.909-1.079-2.472-1.189-5.34-.31-7.913.465-1.337 1.086-2.429 2.031-3.579.384-.46.561-.733.561-.863 0-.108-.192-.46-.443-.827-.886-1.287-1.248-2.717-1.034-4.068.222-1.366.842-2.487 1.987-3.601 1.492-1.445 3.575-2.401 6.02-2.76 1.012-.151 3.25-.093 4.285.101z"/><path d="M14.51 2.983c-3.029.496-5.4 2.178-6.176 4.384-.177.496-.207.69-.207 1.402s.03.906.207 1.402c.111.316.318.755.458.978.384.618.554.64 1.315.18a11.949 11.949 0 0 1 3.804-1.488c.916-.187 2.674-.259 3.671-.144 1.559.18 3.25.74 4.602 1.538.384.223.776.41.872.41.561 0 1.278-1.617 1.278-2.875 0-2.796-2.674-5.189-6.464-5.786-.805-.129-2.585-.129-3.361 0zm3.656 1.15c1.271.273 2.438.791 3.317 1.473 1.182.913 1.817 2.185 1.714 3.414-.037.489-.222 1.15-.332 1.222-.029.014-.443-.158-.916-.388a14.721 14.721 0 0 0-3.228-1.1c-.687-.144-.975-.165-2.512-.158-1.514 0-1.832.022-2.489.158a13.254 13.254 0 0 0-3.117 1.064c-1.101.525-1.042.532-1.241-.115-.258-.841-.096-1.955.406-2.796.266-.446.997-1.186 1.529-1.553 1.012-.697 1.899-1.013 3.804-1.358.391-.072 2.563.029 3.066.137zm-1.204 9.272c-.207.259-.207.503.007.712.14.137.281.173.79.208.99.072 1.935.359 2.785.848.606.359 1.529 1.229 1.943 1.854.613.898 1.034 2.185 1.034 3.134 0 .331.029.431.185.575.236.237.547.237.776 0 .163-.165.17-.208.125-.913-.207-3.479-3.184-6.383-6.744-6.577l-.739-.043-.163.201z"/></symbol><symbol id="icon-point-up" viewBox="0 0 32 32"><path d="M30 19v-5a3.004 3.004 0 0 0-4.472-2.614 3 3 0 0 0-4.528-.62 2.987 2.987 0 0 0-3-.595V3c0-1.654-1.346-3-3-3s-3 1.346-3 3v12.334l-5.501-2.932A3.004 3.004 0 0 0 2 15.001c0 .824.327 1.592.922 2.163l.023.022 7.474 6.815H9a1 1 0 0 0-1 1v6a1 1 0 0 0 1 1h20a1 1 0 0 0 1-1v-6a1 1 0 0 0-1-1h-1.382l2.276-4.553c.069-.139.106-.292.106-.447zm-2 8a1 1 0 1 1-2 0 1 1 0 0 1 2 0zm0-8.236L25.382 24H13.387l-9.088-8.286a1.002 1.002 0 0 1 1.18-1.592c.017.01.033.02.051.029l7 3.732a1 1 0 0 0 1.47-.882v-14c0-.551.449-1 1-1s1 .449 1 1v10a1 1 0 0 0 2 0c0-.551.449-1 1-1s1 .449 1 1a1 1 0 0 0 2 0c0-.551.449-1 1-1s1 .449 1 1v1a1 1 0 0 0 2 0c0-.551.449-1 1-1s1 .449 1 1v4.764z"/></symbol></defs></svg>