<svg width="768" height="68" viewBox="0 0 768 68" fill="none" xmlns="http://www.w3.org/2000/svg">
<ellipse cx="654.897" cy="63.1246" rx="3.74451" ry="3.84191" fill="#F8D24E"/>
<ellipse cx="663.01" cy="58.0021" rx="3.74451" ry="3.84191" fill="#F8D24E"/>
<ellipse cx="672.371" cy="52.2386" rx="3.74451" ry="3.84191" fill="#F8D24E"/>
<ellipse cx="681.109" cy="47.1161" rx="3.74451" ry="3.84191" fill="#F8D24E"/>
<ellipse cx="676.116" cy="60.5629" rx="3.74451" ry="3.84191" fill="#F8D24E"/>
<ellipse cx="684.229" cy="55.4408" rx="3.74451" ry="3.84191" fill="#F8D24E"/>
<ellipse cx="693.591" cy="49.6776" rx="3.74451" ry="3.84191" fill="#F8D24E"/>
<ellipse cx="702.328" cy="44.5553" rx="3.74451" ry="3.84191" fill="#F8D24E"/>
<ellipse cx="694.215" cy="58.642" rx="3.74451" ry="3.84191" fill="#F8D24E"/>
<ellipse cx="702.328" cy="53.5189" rx="3.74451" ry="3.84191" fill="#F8D24E"/>
<ellipse cx="711.689" cy="47.7562" rx="3.74451" ry="3.84191" fill="#F8D24E"/>
<ellipse cx="720.425" cy="42.6344" rx="3.74451" ry="3.84191" fill="#F8D24E"/>
<ellipse cx="711.689" cy="56.0812" rx="3.74451" ry="3.84191" fill="#F8D24E"/>
<ellipse cx="719.802" cy="50.9581" rx="3.74451" ry="3.84191" fill="#F8D24E"/>
<ellipse cx="729.163" cy="45.1954" rx="3.74451" ry="3.84191" fill="#F8D24E"/>
<ellipse cx="737.901" cy="40.0729" rx="3.74451" ry="3.84191" fill="#F8D24E"/>
<ellipse cx="717.306" cy="63.1246" rx="3.74451" ry="3.84191" fill="#F8D24E"/>
<ellipse cx="725.419" cy="58.0021" rx="3.74451" ry="3.84191" fill="#F8D24E"/>
<ellipse cx="736.652" cy="63.7648" rx="3.74451" ry="3.84191" fill="#F8D24E"/>
<ellipse cx="734.78" cy="52.2386" rx="3.74451" ry="3.84191" fill="#F8D24E"/>
<ellipse cx="746.015" cy="58.0021" rx="3.74451" ry="3.84191" fill="#F8D24E"/>
<ellipse cx="754.751" cy="63.7648" rx="3.74451" ry="3.84191" fill="#F8D24E"/>
<ellipse cx="743.517" cy="47.1161" rx="3.74451" ry="3.84191" fill="#F8D24E"/>
<ellipse cx="754.751" cy="52.879" rx="3.74451" ry="3.84191" fill="#F8D24E"/>
<ellipse cx="763.488" cy="58.6422" rx="3.74451" ry="3.84191" fill="#F8D24E"/>
<ellipse cx="616.828" cy="20.8639" rx="3.74451" ry="3.84191" fill="#F8D24E"/>
<ellipse cx="624.94" cy="15.7408" rx="3.74451" ry="3.84191" fill="#F8D24E"/>
<ellipse cx="634.303" cy="9.97838" rx="3.74451" ry="3.84191" fill="#F8D24E"/>
<ellipse cx="643.038" cy="4.85583" rx="3.74451" ry="3.84191" fill="#F8D24E"/>
<ellipse cx="601.226" cy="20.2223" rx="3.74451" ry="3.84191" fill="#F8D24E"/>
<ellipse cx="609.339" cy="15.1002" rx="3.74451" ry="3.84191" fill="#F8D24E"/>
<ellipse cx="618.7" cy="9.33752" rx="3.74451" ry="3.84191" fill="#F8D24E"/>
<ellipse cx="627.437" cy="4.2152" rx="3.74451" ry="3.84191" fill="#F8D24E"/>
<ellipse cx="636.175" cy="63.1246" rx="3.74451" ry="3.84191" fill="#F8D24E"/>
<ellipse cx="644.287" cy="58.0021" rx="3.74451" ry="3.84191" fill="#F8D24E"/>
<ellipse cx="653.649" cy="52.2386" rx="3.74451" ry="3.84191" fill="#F8D24E"/>
<ellipse cx="662.387" cy="47.1161" rx="3.74451" ry="3.84191" fill="#F8D24E"/>
<ellipse cx="626.19" cy="59.2826" rx="3.74451" ry="3.84191" fill="#F8D24E"/>
<ellipse cx="634.303" cy="54.16" rx="3.74451" ry="3.84191" fill="#F8D24E"/>
<ellipse cx="643.664" cy="48.3971" rx="3.74451" ry="3.84191" fill="#F8D24E"/>
<ellipse cx="652.401" cy="43.2748" rx="3.74451" ry="3.84191" fill="#F8D24E"/>
<ellipse cx="629.933" cy="45.8361" rx="3.74451" ry="3.84191" fill="#F8D24E"/>
<ellipse cx="638.046" cy="40.7135" rx="3.74451" ry="3.84191" fill="#F8D24E"/>
<ellipse cx="647.408" cy="34.9503" rx="3.74451" ry="3.84191" fill="#F8D24E"/>
<ellipse cx="656.145" cy="29.828" rx="3.74451" ry="3.84191" fill="#F8D24E"/>
<ellipse cx="629.933" cy="23.4252" rx="3.74451" ry="3.84191" fill="#F8D24E"/>
<ellipse cx="638.046" cy="18.3021" rx="3.74451" ry="3.84191" fill="#F8D24E"/>
<ellipse cx="647.408" cy="12.5394" rx="3.74451" ry="3.84191" fill="#F8D24E"/>
<ellipse cx="656.145" cy="7.41686" rx="3.74451" ry="3.84191" fill="#F8D24E"/>
<ellipse cx="628.062" cy="35.5912" rx="3.74451" ry="3.84191" fill="#F8D24E"/>
<ellipse cx="636.176" cy="30.4679" rx="3.74451" ry="3.84191" fill="#F8D24E"/>
<ellipse cx="645.536" cy="24.7054" rx="3.74451" ry="3.84191" fill="#F8D24E"/>
<ellipse cx="654.273" cy="19.5831" rx="3.74451" ry="3.84191" fill="#F8D24E"/>
<ellipse cx="588.745" cy="17.0214" rx="3.74451" ry="3.84191" fill="#F8D24E"/>
<ellipse cx="596.858" cy="11.8986" rx="3.74451" ry="3.84191" fill="#F8D24E"/>
<ellipse cx="606.219" cy="6.1361" rx="3.74451" ry="3.84191" fill="#F8D24E"/>
<path d="M605.595 20.8633C607.663 20.8633 609.34 19.1432 609.34 17.0214C609.34 14.8995 607.663 13.1794 605.595 13.1794C603.527 13.1794 601.851 14.8995 601.851 17.0214C601.851 19.1432 603.527 20.8633 605.595 20.8633Z" fill="#F8D24E"/>
<ellipse cx="3.74451" cy="60.4899" rx="3.74451" ry="3.84191" fill="#F8D24E"/>
<ellipse cx="11.8568" cy="55.3673" rx="3.74451" ry="3.84191" fill="#F8D24E"/>
<ellipse cx="21.2186" cy="49.6046" rx="3.74451" ry="3.84191" fill="#F8D24E"/>
<ellipse cx="29.9564" cy="44.4823" rx="3.74451" ry="3.84191" fill="#F8D24E"/>
<ellipse cx="51.1757" cy="62.411" rx="3.74451" ry="3.84191" fill="#F8D24E"/>
<ellipse cx="59.288" cy="57.288" rx="3.74451" ry="3.84191" fill="#F8D24E"/>
<ellipse cx="68.6498" cy="51.5255" rx="3.74451" ry="3.84191" fill="#F8D24E"/>
<ellipse cx="77.3856" cy="46.4027" rx="3.74451" ry="3.84191" fill="#F8D24E"/>
<ellipse cx="70.5223" cy="59.849" rx="3.74451" ry="3.84191" fill="#F8D24E"/>
<ellipse cx="78.6346" cy="54.7269" rx="3.74451" ry="3.84191" fill="#F8D24E"/>
<ellipse cx="87.996" cy="48.964" rx="3.74451" ry="3.84191" fill="#F8D24E"/>
<ellipse cx="96.7328" cy="43.8412" rx="3.74451" ry="3.84191" fill="#F8D24E"/>
<ellipse cx="106.095" cy="36.1576" rx="3.74451" ry="3.84191" fill="#F8D24E"/>
<ellipse cx="86.1234" cy="40.6398" rx="3.74451" ry="3.84191" fill="#F8D24E"/>
<ellipse cx="33.701" cy="61.7706" rx="3.74451" ry="3.84191" fill="#F8D24E"/>
<ellipse cx="41.8138" cy="56.6478" rx="3.74451" ry="3.84191" fill="#F8D24E"/>
<ellipse cx="51.1757" cy="50.8846" rx="3.74451" ry="3.84191" fill="#F8D24E"/>
<ellipse cx="59.9115" cy="45.7628" rx="3.74451" ry="3.84191" fill="#F8D24E"/>
<ellipse cx="18.0985" cy="61.1298" rx="3.74451" ry="3.84191" fill="#F8D24E"/>
<ellipse cx="26.2118" cy="56.0072" rx="3.74451" ry="3.84191" fill="#F8D24E"/>
<ellipse cx="35.5726" cy="50.2445" rx="3.74451" ry="3.84191" fill="#F8D24E"/>
<ellipse cx="44.3094" cy="45.1222" rx="3.74451" ry="3.84191" fill="#F8D24E"/>
</svg>
