<svg width="320" height="50" viewBox="0 0 320 50" fill="none" xmlns="http://www.w3.org/2000/svg">
<ellipse cx="240.042" cy="46.2757" rx="2.6652" ry="2.77865" fill="#F8D24E"/>
<ellipse cx="245.818" cy="42.5708" rx="2.6652" ry="2.77865" fill="#F8D24E"/>
<ellipse cx="252.479" cy="38.4026" rx="2.6652" ry="2.77865" fill="#F8D24E"/>
<ellipse cx="258.699" cy="34.6976" rx="2.6652" ry="2.77865" fill="#F8D24E"/>
<ellipse cx="255.144" cy="44.4233" rx="2.6652" ry="2.77865" fill="#F8D24E"/>
<ellipse cx="260.919" cy="40.7185" rx="2.6652" ry="2.77865" fill="#F8D24E"/>
<ellipse cx="267.581" cy="36.5505" rx="2.6652" ry="2.77865" fill="#F8D24E"/>
<ellipse cx="273.802" cy="32.8459" rx="2.6652" ry="2.77865" fill="#F8D24E"/>
<ellipse cx="268.027" cy="43.0343" rx="2.6652" ry="2.77865" fill="#F8D24E"/>
<ellipse cx="273.803" cy="39.3289" rx="2.6652" ry="2.77865" fill="#F8D24E"/>
<ellipse cx="280.466" cy="35.1611" rx="2.6652" ry="2.77865" fill="#F8D24E"/>
<ellipse cx="286.683" cy="31.4569" rx="2.6652" ry="2.77865" fill="#F8D24E"/>
<ellipse cx="280.464" cy="41.182" rx="2.6652" ry="2.77865" fill="#F8D24E"/>
<ellipse cx="286.237" cy="37.4768" rx="2.6652" ry="2.77865" fill="#F8D24E"/>
<ellipse cx="292.901" cy="33.3089" rx="2.6652" ry="2.77865" fill="#F8D24E"/>
<ellipse cx="299.12" cy="29.6041" rx="2.6652" ry="2.77865" fill="#F8D24E"/>
<ellipse cx="284.463" cy="46.2757" rx="2.6652" ry="2.77865" fill="#F8D24E"/>
<ellipse cx="290.238" cy="42.5708" rx="2.6652" ry="2.77865" fill="#F8D24E"/>
<ellipse cx="298.234" cy="46.7387" rx="2.6652" ry="2.77865" fill="#F8D24E"/>
<ellipse cx="296.902" cy="38.4026" rx="2.6652" ry="2.77865" fill="#F8D24E"/>
<ellipse cx="304.897" cy="42.5708" rx="2.6652" ry="2.77865" fill="#F8D24E"/>
<ellipse cx="311.116" cy="46.7387" rx="2.6652" ry="2.77865" fill="#F8D24E"/>
<ellipse cx="303.12" cy="34.6976" rx="2.6652" ry="2.77865" fill="#F8D24E"/>
<ellipse cx="311.116" cy="38.8654" rx="2.6652" ry="2.77865" fill="#F8D24E"/>
<ellipse cx="317.335" cy="43.0338" rx="2.6652" ry="2.77865" fill="#F8D24E"/>
<ellipse cx="212.948" cy="15.7111" rx="2.6652" ry="2.77865" fill="#F8D24E"/>
<ellipse cx="218.722" cy="12.0058" rx="2.6652" ry="2.77865" fill="#F8D24E"/>
<ellipse cx="225.387" cy="7.83822" rx="2.6652" ry="2.77865" fill="#F8D24E"/>
<ellipse cx="231.604" cy="4.13339" rx="2.6652" ry="2.77865" fill="#F8D24E"/>
<ellipse cx="201.842" cy="15.247" rx="2.6652" ry="2.77865" fill="#F8D24E"/>
<ellipse cx="207.615" cy="11.5424" rx="2.6652" ry="2.77865" fill="#F8D24E"/>
<ellipse cx="214.278" cy="7.37485" rx="2.6652" ry="2.77865" fill="#F8D24E"/>
<ellipse cx="220.497" cy="3.67001" rx="2.6652" ry="2.77865" fill="#F8D24E"/>
<ellipse cx="226.716" cy="46.2757" rx="2.6652" ry="2.77865" fill="#F8D24E"/>
<ellipse cx="232.489" cy="42.5708" rx="2.6652" ry="2.77865" fill="#F8D24E"/>
<ellipse cx="239.152" cy="38.4026" rx="2.6652" ry="2.77865" fill="#F8D24E"/>
<ellipse cx="245.372" cy="34.6976" rx="2.6652" ry="2.77865" fill="#F8D24E"/>
<ellipse cx="219.61" cy="43.4975" rx="2.6652" ry="2.77865" fill="#F8D24E"/>
<ellipse cx="225.384" cy="39.7926" rx="2.6652" ry="2.77865" fill="#F8D24E"/>
<ellipse cx="232.046" cy="35.6244" rx="2.6652" ry="2.77865" fill="#F8D24E"/>
<ellipse cx="238.266" cy="31.9196" rx="2.6652" ry="2.77865" fill="#F8D24E"/>
<ellipse cx="222.275" cy="33.7721" rx="2.6652" ry="2.77865" fill="#F8D24E"/>
<ellipse cx="228.048" cy="30.0672" rx="2.6652" ry="2.77865" fill="#F8D24E"/>
<ellipse cx="234.713" cy="25.899" rx="2.6652" ry="2.77865" fill="#F8D24E"/>
<ellipse cx="240.931" cy="22.1944" rx="2.6652" ry="2.77865" fill="#F8D24E"/>
<ellipse cx="222.275" cy="17.5631" rx="2.6652" ry="2.77865" fill="#F8D24E"/>
<ellipse cx="228.048" cy="13.8579" rx="2.6652" ry="2.77865" fill="#F8D24E"/>
<ellipse cx="234.713" cy="9.69015" rx="2.6652" ry="2.77865" fill="#F8D24E"/>
<ellipse cx="240.931" cy="5.9852" rx="2.6652" ry="2.77865" fill="#F8D24E"/>
<ellipse cx="220.942" cy="26.3628" rx="2.6652" ry="2.77865" fill="#F8D24E"/>
<ellipse cx="226.717" cy="22.6573" rx="2.6652" ry="2.77865" fill="#F8D24E"/>
<ellipse cx="233.379" cy="18.4896" rx="2.6652" ry="2.77865" fill="#F8D24E"/>
<ellipse cx="239.598" cy="14.7849" rx="2.6652" ry="2.77865" fill="#F8D24E"/>
<ellipse cx="192.957" cy="12.9317" rx="2.6652" ry="2.77865" fill="#F8D24E"/>
<ellipse cx="198.733" cy="9.22677" rx="2.6652" ry="2.77865" fill="#F8D24E"/>
<ellipse cx="205.396" cy="5.05917" rx="2.6652" ry="2.77865" fill="#F8D24E"/>
<path d="M204.951 15.7104C206.423 15.7104 207.617 14.4663 207.617 12.9317C207.617 11.3971 206.423 10.1531 204.951 10.1531C203.479 10.1531 202.286 11.3971 202.286 12.9317C202.286 14.4663 203.479 15.7104 204.951 15.7104Z" fill="#F8D24E"/>
<ellipse rx="2.70733" ry="2.81717" transform="matrix(0.987476 -0.157829 0.145482 0.98937 79.721 33.9821)" fill="#F8D24E"/>
<ellipse rx="2.70733" ry="2.81717" transform="matrix(0.987476 -0.157829 0.145482 0.98937 84.9671 29.3392)" fill="#F8D24E"/>
<ellipse rx="2.70733" ry="2.81717" transform="matrix(0.987476 -0.157829 0.145482 0.98937 91.0364 24.0905)" fill="#F8D24E"/>
<ellipse rx="2.70733" ry="2.81717" transform="matrix(0.987476 -0.157829 0.145482 0.98937 96.7278 19.3773)" fill="#F8D24E"/>
<ellipse cx="0.611373" cy="29.7916" rx="2.71977" ry="2.81979" fill="#F8D24E"/>
<ellipse cx="7.41313" cy="25.562" rx="2.71977" ry="2.81979" fill="#F8D24E"/>
<ellipse cx="13.7579" cy="21.8017" rx="2.71977" ry="2.81979" fill="#F8D24E"/>
<ellipse cx="-2.55953" cy="40.6005" rx="2.71977" ry="2.81979" fill="#F8D24E"/>
<ellipse cx="3.33305" cy="36.8408" rx="2.71977" ry="2.81979" fill="#F8D24E"/>
<ellipse cx="10.1338" cy="32.611" rx="2.71977" ry="2.81979" fill="#F8D24E"/>
<ellipse cx="16.4786" cy="28.8513" rx="2.71977" ry="2.81979" fill="#F8D24E"/>
<ellipse cx="4.23833" cy="44.3598" rx="2.71977" ry="2.81979" fill="#F8D24E"/>
<ellipse cx="10.1319" cy="40.6004" rx="2.71977" ry="2.81979" fill="#F8D24E"/>
<ellipse cx="16.9307" cy="36.3707" rx="2.71977" ry="2.81979" fill="#F8D24E"/>
<ellipse cx="23.2764" cy="32.611" rx="2.71977" ry="2.81979" fill="#F8D24E"/>
<ellipse cx="11.9434" cy="46.7105" rx="2.71977" ry="2.81979" fill="#F8D24E"/>
<ellipse cx="17.836" cy="42.95" rx="2.71977" ry="2.81979" fill="#F8D24E"/>
<ellipse cx="24.6377" cy="38.7208" rx="2.71977" ry="2.81979" fill="#F8D24E"/>
<ellipse cx="30.9815" cy="34.961" rx="2.71977" ry="2.81979" fill="#F8D24E"/>
<ellipse cx="21.917" cy="47.1805" rx="2.71977" ry="2.81979" fill="#F8D24E"/>
<ellipse cx="27.8096" cy="43.4207" rx="2.71977" ry="2.81979" fill="#F8D24E"/>
<ellipse cx="34.6104" cy="39.1908" rx="2.71977" ry="2.81979" fill="#F8D24E"/>
<ellipse cx="40.9551" cy="35.4315" rx="2.71977" ry="2.81979" fill="#F8D24E"/>
<ellipse cx="33.7041" cy="47.1803" rx="2.71977" ry="2.81979" fill="#F8D24E"/>
<ellipse cx="39.5957" cy="43.4205" rx="2.71977" ry="2.81979" fill="#F8D24E"/>
<ellipse cx="46.3956" cy="39.1905" rx="2.71977" ry="2.81979" fill="#F8D24E"/>
<ellipse cx="52.7422" cy="35.4312" rx="2.71977" ry="2.81979" fill="#F8D24E"/>
<ellipse cx="43.6739" cy="46.7103" rx="2.71977" ry="2.81979" fill="#F8D24E"/>
<ellipse cx="49.5665" cy="42.95" rx="2.71977" ry="2.81979" fill="#F8D24E"/>
<ellipse cx="56.3672" cy="38.7208" rx="2.71977" ry="2.81979" fill="#F8D24E"/>
<ellipse cx="62.712" cy="34.961" rx="2.71977" ry="2.81979" fill="#F8D24E"/>
<ellipse cx="55.0059" cy="46.24" rx="2.71977" ry="2.81979" fill="#F8D24E"/>
<ellipse cx="60.8985" cy="42.4804" rx="2.71977" ry="2.81979" fill="#F8D24E"/>
<ellipse cx="67.6993" cy="38.2509" rx="2.71977" ry="2.81979" fill="#F8D24E"/>
<ellipse cx="74.044" cy="34.4909" rx="2.71977" ry="2.81979" fill="#F8D24E"/>
<ellipse cx="65.4317" cy="34.0211" rx="2.71977" ry="2.81979" fill="#F8D24E"/>
<ellipse cx="71.3243" cy="30.2614" rx="2.71977" ry="2.81979" fill="#F8D24E"/>
<ellipse cx="78.1241" cy="26.0317" rx="2.71977" ry="2.81979" fill="#F8D24E"/>
<ellipse cx="84.4698" cy="22.2717" rx="2.71977" ry="2.81979" fill="#F8D24E"/>
</svg>
